<?xml version="1.0" encoding="UTF-8" standalone="no"?>
<!DOCTYPE svg PUBLIC "-//W3C//DTD SVG 1.1//EN" "http://www.w3.org/Graphics/SVG/1.1/DTD/svg11.dtd">
<svg width="100%" height="100%" viewBox="0 0 2301 2885" version="1.1" xmlns="http://www.w3.org/2000/svg" xmlns:xlink="http://www.w3.org/1999/xlink" xml:space="preserve" xmlns:serif="http://www.serif.com/" style="fill-rule:evenodd;clip-rule:evenodd;stroke-linejoin:round;stroke-miterlimit:2;">
    <g transform="matrix(1,0,0,1,-349.933,-57.5403)">
        <g transform="matrix(1.0863,0,0,1.0863,-129.456,-129.456)">
            <g transform="matrix(-6.11662,-0.00186844,0.00154155,-5.0465,3608.52,3132.47)">
                <path d="M483.148,264.163L517.887,324.295L212.968,324.295L212.968,264.163L483.148,264.163Z" style="fill:rgb(140,140,140);"/>
            </g>
            <g transform="matrix(-6.11662,0.00186844,0.00154155,5.0465,3608.52,-137.52)">
                <path d="M483.148,264.163L517.887,324.295L212.968,324.295L212.968,264.163L483.148,264.163Z" style="fill:rgb(115,115,115);"/>
            </g>
            <path d="M1275.35,2287.83L1830.52,1494.95L2200.97,1494.95L1275.35,2816.89L1275.35,2287.83Z" style="fill:rgb(153,153,153);"/>
            <path d="M1275.35,178.068L2200.97,1500L1830.52,1500L1275.35,707.127L1275.35,178.068Z" style="fill:rgb(153,153,153);"/>
            <path d="M1275.35,172.14L1628.92,172.14L2558.7,1500L2188.25,1500L1275.35,196.241L1275.35,172.14Z" style="fill:rgb(102,102,102);"/>
            <path d="M1275.35,2827.86L1275.35,2803.76L2188.25,1500L2558.7,1500L1628.92,2827.86L1275.35,2827.86Z" style="fill:rgb(128,128,128);"/>
            <g transform="matrix(6.11662,-0.00186844,-0.00154155,-5.0465,-608.517,3132.47)">
                <path d="M483.148,264.163L517.887,324.295L212.968,324.295L212.968,264.163L483.148,264.163Z" style="fill:rgb(140,140,140);"/>
            </g>
            <g transform="matrix(6.11662,0.00186844,-0.00154155,5.0465,-608.517,-137.52)">
                <path d="M483.148,264.163L517.887,324.295L212.968,324.295L212.968,264.163L483.148,264.163Z" style="fill:rgb(115,115,115);"/>
            </g>
        </g>
    </g>
</svg>
