<?xml version="1.0" encoding="UTF-8"?>
<!-- Generated by Pixelmator Pro 3.7.1 -->
<svg width="5704" height="2064" viewBox="0 0 5704 2064" xmlns="http://www.w3.org/2000/svg">
    <path id="Path" fill="#ffffff" stroke="none" d="M 0.726562 0 L 5703.726563 0 L 5703.726563 2064 L 0.726562 2064 Z"/>
    <path id="path1" fill="#1b1340" stroke="none" d="M 1908.02002 1138.640015 L 1908.02002 1258.569946 L 1991.76001 1258.569946 L 1991.76001 1143.880005 C 1991.76001 1132.75 1996.130005 1121.98999 2004.040039 1114.130005 C 2011.859985 1106.280029 2022.560059 1101.790039 2033.630005 1101.790039 L 2119.51001 1101.790039 C 2159.52002 1101.790039 2197.939941 1085.790039 2226.22998 1057.26001 C 2254.51001 1028.819946 2270.419922 990.184082 2270.419922 949.958984 C 2270.419922 909.734009 2254.51001 871.098999 2226.22998 842.567993 C 2197.939941 814.129028 2159.52002 798.133057 2119.419922 798.133057 L 1908.02002 798.133057 L 1908.02002 947.994995 L 1991.76001 947.994995 L 1991.76001 877.366943 L 2113.830078 877.366943 C 2132.810059 877.366943 2150.959961 884.94397 2164.360107 898.415039 C 2177.75 911.885986 2185.290039 930.126953 2185.290039 949.210938 C 2185.290039 968.293945 2177.75 986.536011 2164.360107 1000.01001 C 2150.959961 1013.47998 2132.810059 1021.050049 2113.830078 1021.050049 L 2025.160034 1021.050049 C 2009.810059 1021.050049 1994.550049 1024.050049 1980.410034 1030.040039 C 1966.170044 1035.930054 1953.339966 1044.630005 1942.449951 1055.569946 C 1931.560059 1066.52002 1923 1079.52002 1917.050049 1093.73999 C 1911.089966 1107.869995 1908.02002 1123.209961 1908.02002 1138.640015 Z"/>
    <path id="path2" fill="#1b1340" stroke="none" d="M 2283.360107 1258.569946 L 2283.360107 1075.869995 C 2283.360107 1001.320068 2326.620117 942.008057 2413.23999 942.008057 C 2427.110107 941.821045 2440.969971 943.317017 2454.550049 946.591064 L 2454.550049 1021.709961 C 2444.689941 1021.050049 2436.22998 1021.050049 2432.219971 1021.050049 C 2386.350098 1021.050049 2366.629883 1042.199951 2366.629883 1085.040039 L 2366.629883 1258.569946 L 2283.360107 1258.569946 Z"/>
    <path id="path3" fill="#1b1340" stroke="none" d="M 2479.48999 1103.660034 C 2479.48999 1011.97998 2548.340088 942.102051 2644.169922 942.102051 C 2740.01001 942.102051 2808.860107 1011.97998 2808.860107 1103.660034 C 2808.860107 1195.329956 2740.01001 1265.869995 2644.169922 1265.869995 C 2548.340088 1265.869995 2479.48999 1195.23999 2479.48999 1103.660034 Z M 2726.790039 1103.660034 C 2726.790039 1051.550049 2692 1014.599976 2644.169922 1014.599976 C 2596.26001 1014.599976 2561.550049 1051.459961 2561.550049 1103.660034 C 2561.550049 1156.420044 2596.350098 1192.709961 2644.169922 1192.709961 C 2692.090088 1192.709961 2726.790039 1156.319946 2726.790039 1103.660034 Z"/>
    <path id="path4" fill="#1b1340" stroke="none" d="M 3075.149902 1103.660034 C 3075.149902 1011.97998 3144 942.102051 3239.830078 942.102051 C 3335.570068 942.102051 3404.419922 1011.97998 3404.419922 1103.660034 C 3404.419922 1195.329956 3335.570068 1265.869995 3239.830078 1265.869995 C 3144 1265.869995 3075.149902 1195.23999 3075.149902 1103.660034 Z M 3322.360107 1103.660034 C 3322.360107 1051.550049 3287.560059 1014.599976 3239.73999 1014.599976 C 3191.909912 1014.599976 3157.120117 1051.459961 3157.120117 1103.660034 C 3157.120117 1156.420044 3191.909912 1192.709961 3239.73999 1192.709961 C 3287.560059 1192.709961 3322.360107 1156.319946 3322.360107 1103.660034 Z"/>
    <path id="path5" fill="#1b1340" stroke="none" d="M 3447.689941 1258.569946 L 3447.689941 1082.52002 C 3447.689941 1000.76001 3499.51001 942.009033 3592 942.009033 C 3683.830078 942.009033 3735.659912 1000.659912 3735.659912 1082.52002 L 3735.659912 1258.569946 L 3653.030029 1258.569946 L 3653.030029 1089.060059 C 3653.030029 1043.599976 3632.659912 1015.159912 3592 1015.159912 C 3551.340088 1015.159912 3530.959961 1043.51001 3530.959961 1089.060059 L 3530.959961 1258.569946 L 3447.689941 1258.569946 Z"/>
    <path id="path6" fill="#1b1340" stroke="none" d="M 3050.209961 1015.25 L 2960.330078 1015.25 L 2960.330078 1130.689941 C 2960.330078 1170.910034 2974.75 1189.339966 3016.060059 1189.339966 C 3019.969971 1189.339966 3029.840088 1189.339966 3042.300049 1188.689941 L 3042.300049 1256.599976 C 3025.280029 1261.189941 3010.199951 1263.900024 2993.72998 1263.900024 C 2924.22998 1263.900024 2876.969971 1221.709961 2876.969971 1141.910034 L 2876.969971 1015.25 L 2821.139893 1015.25 L 2821.139893 948.645996 L 2835.100098 948.645996 C 2840.590088 948.645996 2846.080078 947.523926 2851.100098 945.466064 C 2856.219971 943.313965 2860.780029 940.227051 2864.679932 936.297974 C 2868.590088 932.369019 2871.659912 927.784912 2873.800049 922.640015 C 2875.939941 917.494995 2876.969971 912.06897 2876.969971 906.550049 L 2876.969971 843.780029 L 2960.23999 843.780029 L 2960.23999 948.645996 L 3050.120117 948.645996 L 3050.120117 1015.25 L 3050.209961 1015.25 Z"/>
    <path id="path7" fill="#6d4aff" stroke="none" d="M 3900.22998 810.013916 L 4017.199951 810.013916 L 4126.850098 1079.089966 C 4136.620117 1101.640015 4144.97998 1124.650024 4152.029785 1148.140015 L 4153.160156 1148.140015 C 4160.200195 1124.650024 4168.569824 1101.550049 4178.339844 1079.089966 L 4287.97998 810.013916 L 4404.959961 810.013916 L 4404.959961 1258.72998 L 4320.209961 1258.72998 L 4320.209961 958.119019 C 4320.120117 948.200928 4320.589844 938.283936 4321.620117 928.459961 L 4320.209961 928.459961 C 4317.580078 939.032959 4314.100098 949.417969 4309.689941 959.428955 L 4188.200195 1253.48999 L 4117.919922 1253.48999 L 3996.060059 959.428955 C 3991.649902 949.323975 3987.889893 939.032959 3984.879883 928.459961 L 3983.570068 928.459961 C 3984.51001 938.283936 3984.969971 948.200928 3984.879883 958.119019 L 3984.879883 1258.819946 L 3900.22998 1258.819946 L 3900.22998 810.013916 Z"/>
    <path id="path8" fill="#6d4aff" stroke="none" d="M 4694.810059 962.703979 C 4719.339844 975.521973 4739.629883 995.168945 4753.25 1019.209961 C 4767.819824 1045.319946 4775.149902 1074.880005 4774.580078 1104.72998 L 4774.580078 1258.72998 L 4700.359863 1258.72998 L 4695.100098 1212.51001 C 4685.419922 1229.26001 4671.22998 1242.910034 4654.129883 1252.079956 C 4635.810059 1261.530029 4615.330078 1266.300049 4594.660156 1265.839966 C 4568.25 1266.119995 4542.319824 1259.099976 4519.680176 1245.530029 C 4496.75 1231.689941 4478.149902 1211.849976 4465.75 1188.280029 C 4452.220215 1162.27002 4445.450195 1133.359985 4446.02002 1104.069946 C 4445.640137 1075.26001 4453.060059 1046.910034 4467.439941 1021.830078 C 4481.529785 997.508057 4501.919922 977.487061 4526.629883 963.919922 C 4552.189941 949.792969 4580.939941 942.494995 4610.160156 942.869995 C 4639.569824 942.307983 4668.689941 949.137939 4694.810059 962.703979 Z M 4667.660156 1169.839966 C 4683.819824 1154.5 4691.810059 1132.890015 4691.810059 1104.069946 C 4692.839844 1080.5 4684.47998 1057.47998 4668.689941 1039.97998 C 4661.180176 1032.130005 4652.160156 1025.949951 4642.100098 1021.650024 C 4632.049805 1017.340088 4621.339844 1015.189941 4610.439941 1015.189941 C 4599.540039 1015.189941 4588.740234 1017.340088 4578.779785 1021.650024 C 4568.720215 1025.949951 4559.700195 1032.130005 4552.189941 1039.97998 C 4537.160156 1057.949951 4528.890137 1080.589966 4528.890137 1103.97998 C 4528.890137 1127.369995 4537.160156 1150.01001 4552.189941 1167.969971 C 4559.609863 1176.02002 4568.629883 1182.290039 4578.779785 1186.589966 C 4588.830078 1190.800049 4599.72998 1192.949951 4610.629883 1192.670044 C 4621.149902 1192.859985 4631.680176 1190.900024 4641.540039 1186.969971 C 4651.220215 1183.130005 4660.140137 1177.23999 4667.660156 1169.839966 Z"/>
    <path id="path9" fill="#6d4aff" stroke="none" d="M 4820.339844 885.424072 C 4815.359863 880.838989 4811.410156 875.31897 4808.689941 869.144043 C 4805.959961 862.969971 4804.649902 856.327026 4804.740234 849.591064 C 4804.649902 842.854004 4806.060059 836.11792 4808.689941 829.848999 C 4811.410156 823.581055 4815.359863 817.967041 4820.339844 813.383057 C 4830.209961 803.653076 4843.549805 798.133057 4857.450195 798.133057 C 4871.359863 798.133057 4884.700195 803.653076 4894.569824 813.383057 C 4899.540039 818.061035 4903.490234 823.675049 4906.120117 829.848999 C 4908.75 836.11792 4910.160156 842.760986 4910.069824 849.591064 C 4910.160156 856.327026 4908.850098 862.969971 4906.120117 869.144043 C 4903.490234 875.31897 4899.540039 880.838989 4894.569824 885.424072 C 4884.609863 894.967041 4871.259766 900.300049 4857.450195 900.300049 C 4843.549805 900.300049 4830.299805 894.967041 4820.339844 885.424072 Z M 4899.259766 1258.72998 L 4815.830078 1258.72998 L 4815.830078 949.511963 L 4899.259766 949.511963 L 4899.259766 1258.72998 Z"/>
    <path id="path10" fill="#6d4aff" stroke="none" d="M 5043.580078 1258.72998 L 4960.049805 1258.72998 L 4960.049805 810.013916 L 5043.580078 810.013916 L 5043.580078 1258.72998 Z"/>
    <linearGradient id="linearGradient1" x1="2964.54" y1="1887.39" x2="2776.79" y2="23.7359" gradientUnits="userSpaceOnUse">
        <stop offset="0.271" stop-color="#e3d9ff" stop-opacity="1"/>
        <stop offset="1" stop-color="#7341ff" stop-opacity="1"/>
    </linearGradient>
    <path id="path11" fill="url(#linearGradient1)" fill-rule="evenodd" stroke="none" d="M 1383.650024 799.477051 L 1383.650024 1404.459961 L 1483.930054 1404.459961 C 1536.380005 1404.459961 1578.869995 1361.369995 1578.869995 1308.319946 L 1578.869995 680.947998 C 1578.869995 662.822998 1558.050049 652.953003 1544.26001 664.531006 L 1383.650024 799.477051 Z"/>
    <linearGradient id="linearGradient2" x1="1203.25" y1="1411.37" x2="821.429" y2="-96.453" gradientUnits="userSpaceOnUse">
        <stop offset="1e-05" stop-color="#e3d9ff" stop-opacity="1"/>
        <stop offset="1" stop-color="#7341ff" stop-opacity="1"/>
    </linearGradient>
    <path id="path12" fill="url(#linearGradient2)" fill-rule="evenodd" stroke="none" d="M 1243.77002 917.151978 L 1060.560059 1081.040039 C 1029.319946 1108.939941 982.692993 1109.609985 950.702026 1082.660034 L 660.72699 838.574951 L 660.72699 681.042969 C 660.72699 662.917969 681.552979 652.953003 695.343994 664.531006 L 1059.150024 970.294922 C 1094.329956 999.903076 1145.359985 999.903076 1180.540039 970.294922 L 1243.77002 917.151978 Z"/>
    <radialGradient id="radialGradient1" cx="1574.87" cy="750.729" r="1070.72" fx="1574.87" fy="750.729" gradientUnits="userSpaceOnUse">
        <stop offset="0.5561" stop-color="#6d4aff" stop-opacity="1"/>
        <stop offset="0.9944" stop-color="#aa8eff" stop-opacity="1"/>
    </radialGradient>
    <path id="path13" fill="url(#radialGradient1)" stroke="none" d="M 1383.650024 799.572021 L 1243.77002 917.151978 L 1243.869995 917.151001 L 1060.560059 1081.040039 C 1029.319946 1108.939941 982.692993 1109.609985 950.702026 1082.660034 L 660.72699 838.574951 L 660.72699 1308.319946 C 660.72699 1361.369995 703.223999 1404.459961 755.664978 1404.459961 L 1383.650024 1404.459961 L 1383.650024 799.572021 Z"/>
</svg>
