<?xml version="1.0" encoding="UTF-8"?>
<svg width="680px" height="201px" viewBox="0 0 680 201" version="1.1" xmlns="http://www.w3.org/2000/svg" xmlns:xlink="http://www.w3.org/1999/xlink">
    <!-- Generator: Sketch 53.1 (72631) - https://sketchapp.com -->
    <title>Setapp-Full-Color-Light-Logo</title>
    <desc>Created with Sketch.</desc>
    <g id="Setapp-Full-Color-Light-Logo" stroke="none" stroke-width="1" fill="none" fill-rule="evenodd">
        <g id="Group-2-Copy">
            <g id="Group" transform="translate(0.000000, 0.000000)" fill="#E6C3A5">
                <path d="M73.2029774,68.0350536 L96.2875783,91.2241366 C98.3040375,93.2497223 101.560123,93.2497223 103.582092,91.2241366 L126.661183,68.0350536 C128.677642,66.0150023 128.677642,62.738645 126.661183,60.7130592 L103.582092,37.5239763 C101.560123,35.4983905 98.3040375,35.4983905 96.2875783,37.5239763 L73.2029774,60.7130592 C71.1920277,62.738645 71.1920277,66.0150023 73.2029774,68.0350536" id="Fill-1"></path>
                <path d="M60.4408844,55.2207332 C62.4573436,57.2407846 65.7189388,57.2407846 67.7298885,55.2207332 L90.8199989,32.0316503 C92.836458,30.0060645 92.836458,26.7297072 90.8199989,24.7041215 L67.7298885,1.51503853 C65.7189388,-0.505012844 62.4573436,-0.505012844 60.4408844,1.51503853 L37.361793,24.7041215 C35.3398244,26.7297072 35.3398244,30.0060645 37.361793,32.0316503 L60.4408844,55.2207332 Z" id="Fill-3"></path>
                <path d="M60.4408844,73.5318071 L37.361793,96.7208901 C35.3398244,98.7464758 35.3398244,102.017299 37.361793,104.048419 L60.4408844,127.231967 C62.4573436,129.257553 65.7189388,129.257553 67.7298885,127.231967 L90.8199989,104.048419 C92.836458,102.017299 92.836458,98.7464758 90.8199989,96.7208901 L67.7298885,73.5318071 C65.7189388,71.5117558 62.4573436,71.5117558 60.4408844,73.5318071" id="Fill-5"></path>
                <path d="M24.5969453,91.2269038 C26.607895,93.2469551 29.8749996,93.2469551 31.8859493,91.2269038 L54.9760597,68.0378208 C56.9870094,66.0122351 56.9870094,62.7414122 54.9760597,60.710292 L31.8859493,37.5267435 C29.8749996,35.5011577 26.607895,35.5011577 24.5969453,37.5267435 L1.51234438,60.710292 C-0.504114793,62.7414122 -0.504114793,66.0122351 1.51234438,68.0378208 L24.5969453,91.2269038 Z" id="Fill-7"></path>
                <path d="M103.580439,109.537978 C101.56398,107.517926 98.3023847,107.517926 96.2914349,109.537978 L73.2013246,132.727061 C71.1903749,134.752646 71.1903749,138.029004 73.2013246,140.054589 L96.2914349,163.243672 C98.3023847,165.263724 101.56398,165.263724 103.580439,163.243672 L126.65953,140.054589 C128.681499,138.029004 128.681499,134.752646 126.65953,132.727061 L103.580439,109.537978 Z" id="Fill-9"></path>
                <path d="M67.7309904,145.543595 C65.7200407,143.523543 62.4584455,143.523543 60.4419863,145.543595 L37.3573854,168.732678 C35.3409263,170.758263 35.3409263,174.034621 37.3573854,176.060207 L60.4419863,199.249289 C62.4584455,201.269341 65.7200407,201.269341 67.7309904,199.249289 L90.8155913,176.060207 C92.8375599,174.034621 92.8375599,170.758263 90.8155913,168.732678 L67.7309904,145.543595 Z" id="Fill-11"></path>
                <path d="M54.9744069,132.729274 L31.889806,109.540191 C29.8733468,107.514606 26.6117516,107.514606 24.5952925,109.540191 L1.51069154,132.729274 C-0.500258177,134.749326 -0.500258177,138.031217 1.51069154,140.051269 L24.5952925,163.245886 C26.6117516,165.265938 29.8733468,165.265938 31.889806,163.245886 L54.9744069,140.051269 C56.9853566,138.031217 56.9853566,134.749326 54.9744069,132.729274" id="Fill-13"></path>
            </g>
            <path d="M257.134907,121.465689 C257.134907,119.401363 256.710679,117.580549 255.856714,116.014318 C255.002749,114.437017 253.801689,113.053421 252.231495,111.869062 C250.672321,110.673634 248.810126,109.627635 246.655931,108.731064 C244.496226,107.840028 242.149199,107.015404 239.614852,106.257193 C236.210011,105.261003 232.860264,104.032369 229.549084,102.560222 C226.248923,101.088075 223.295857,99.2893992 220.706415,97.1586601 C218.111463,95.0389898 216.012362,92.5485155 214.409112,89.7093748 C212.805862,86.8646997 212.006991,83.5717392 212.006991,79.8360278 C212.006991,76.1003163 212.805862,72.7464776 214.409112,69.7855804 C216.012362,66.8191487 218.161048,64.3065369 220.85517,62.236676 C223.543782,60.1723496 226.673151,58.5839804 230.232256,57.4715685 C233.796871,56.3536223 237.515751,55.8001836 241.399914,55.8001836 C245.55404,55.8001836 249.443713,56.4421725 253.068932,57.7316847 C256.688641,59.0267314 259.856576,60.836476 262.561716,63.1664531 C265.277876,65.4908958 267.426562,68.2746926 269.007774,71.5178436 C270.434722,74.4289313 271.233593,77.6222728 271.409895,81.0978681 C271.442952,81.739857 270.908535,82.282227 270.269439,82.282227 L258.198231,82.282227 C257.625248,82.282227 257.156945,81.8450104 257.079812,81.2694341 C256.842906,79.4707582 256.413169,77.810442 255.79611,76.2829511 C255.063353,74.4787408 254.038595,72.9180436 252.710817,71.6008594 C251.38304,70.2892096 249.768771,69.2764167 247.86801,68.5569464 C245.972759,67.8485448 243.774488,67.4888096 241.278706,67.4888096 C239.141039,67.4888096 237.163146,67.765529 235.339518,68.3189677 C233.521399,68.8779408 231.951205,69.6970302 230.623427,70.7707013 C229.29565,71.8388381 228.254363,73.1338847 227.505078,74.6447724 C226.750283,76.1556602 226.37564,77.8657859 226.37564,79.7751495 C226.37564,81.8007353 226.893529,83.5606704 227.918287,85.054955 C228.948554,86.5437052 230.29286,87.8498206 231.956714,88.9622325 C233.615059,90.0746443 235.526839,91.0376277 237.686544,91.8511827 C239.840739,92.670272 242.094105,93.4174143 244.424603,94.0926095 C248.027784,95.1607463 251.4767,96.4834649 254.754824,98.0607652 C258.043966,99.6269969 260.930919,101.519757 263.43221,103.722443 C265.922482,105.92513 267.900375,108.482017 269.365889,111.38757 C270.825893,114.287589 271.56416,117.613756 271.56416,121.349467 C271.56416,125.206935 270.75427,128.605049 269.128982,131.549343 C267.503694,134.493637 265.327461,136.956439 262.594773,138.943284 C259.862085,140.935664 256.69966,142.435483 253.096479,143.448276 C249.493298,144.461069 245.735852,144.970232 241.813123,144.970232 C239.157567,144.970232 236.529559,144.710116 233.918079,144.189884 C231.306599,143.675186 228.799799,142.900371 226.403188,141.870975 C224.006576,140.830511 221.786267,139.552067 219.725733,138.019042 C217.665198,136.491551 215.874626,134.720547 214.348508,132.711564 C212.8279,130.702582 211.626839,128.45562 210.756346,125.970681 C210.001551,123.817804 209.560795,121.482292 209.434078,118.953077 C209.395511,118.311088 209.929928,117.768719 210.569025,117.768719 L222.733893,117.768719 C223.284838,117.768719 223.736613,118.194866 223.791708,118.742771 C224.050652,120.96206 224.596088,122.926768 225.422505,124.625824 C226.37564,126.579463 227.637305,128.201039 229.229536,129.490551 C230.810749,130.785598 232.661924,131.754115 234.777554,132.418242 C236.893183,133.0713 239.240209,133.397828 241.813123,133.397828 C243.95079,133.397828 245.950721,133.137712 247.812915,132.623014 C249.67511,132.108316 251.289379,131.339036 252.677761,130.326243 C254.066143,129.313451 255.157014,128.057145 255.944865,126.568394 C256.738226,125.07411 257.134907,123.380587 257.134907,121.465689 L257.134907,121.465689 Z M343.25314,104.884665 L308.786013,104.884665 L308.786013,132.147057 L349.302518,132.147057 C349.919576,132.147057 350.409917,132.645152 350.409917,133.253934 L350.409917,142.728805 C350.409917,143.337588 349.919576,143.835683 349.302518,143.835683 L295.579858,143.835683 C294.968309,143.835683 294.472458,143.337588 294.472458,142.728805 L294.472458,58.0969543 C294.472458,57.4826373 294.968309,56.9900768 295.579858,56.9900768 L348.889309,56.9900768 C349.500858,56.9900768 349.991199,57.4826373 349.991199,58.0969543 L349.991199,67.6935819 C349.991199,68.3078989 349.500858,68.794925 348.889309,68.794925 L308.786013,68.794925 L308.786013,93.3122609 L343.25314,93.3122609 C343.85918,93.3122609 344.35503,93.8103558 344.35503,94.4191384 L344.35503,103.783322 C344.35503,104.392104 343.85918,104.884665 343.25314,104.884665 L343.25314,104.884665 Z M435.283014,68.794925 L409.840368,68.794925 L409.840368,142.728805 C409.840368,143.337588 409.344518,143.835683 408.738478,143.835683 L396.749912,143.835683 C396.138363,143.835683 395.653531,143.337588 395.653531,142.728805 L395.653531,68.794925 L370.387188,68.794925 C369.775639,68.794925 369.279788,68.3078989 369.279788,67.6935819 L369.279788,58.0969543 C369.279788,57.4826373 369.775639,56.9900768 370.387188,56.9900768 L435.283014,56.9900768 C435.889054,56.9900768 436.379395,57.4826373 436.379395,58.0969543 L436.379395,67.6935819 C436.379395,68.3078989 435.889054,68.794925 435.283014,68.794925 L435.283014,68.794925 Z M498.542534,123.67391 L471.529694,123.67391 L465.821903,143.038731 C465.684167,143.509154 465.254429,143.835683 464.769598,143.835683 L452.378842,143.835683 C451.635066,143.835683 451.100649,143.099609 451.332046,142.385673 L478.703,57.7538223 C478.851755,57.2944681 479.270473,56.9900768 479.749796,56.9900768 L490.675038,56.9900768 C491.15436,56.9900768 491.578588,57.3000025 491.721833,57.7593567 L518.56939,142.391208 C518.795277,143.105144 518.26637,143.835683 517.522594,143.835683 L505.186932,143.835683 C504.702101,143.835683 504.266854,143.509154 504.134627,143.033197 L498.542534,123.67391 Z M475.149404,111.442914 L494.983429,111.442914 L485.187624,77.3898286 L475.149404,111.442914 Z M556.231999,110.551877 L556.231999,142.728805 C556.231999,143.337588 555.736148,143.835683 555.130108,143.835683 L543.080938,143.835683 C542.474899,143.835683 541.979048,143.337588 541.979048,142.728805 L541.979048,58.0969543 C541.979048,57.4826373 542.474899,56.9900768 543.080938,56.9900768 L570.898158,56.9900768 C575.212058,57.0288176 579.200901,57.6763409 582.859177,58.9271124 C586.522962,60.1834183 589.679877,61.9710254 592.335433,64.2954681 C594.985479,66.6254452 597.051523,69.4479827 598.539075,72.7630807 C600.021117,76.0892475 600.764893,79.8360278 600.764893,84.0089558 C600.764893,88.0656617 600.021117,91.7238917 598.539075,94.9836459 C597.051523,98.2489344 594.985479,101.032731 592.335433,103.335036 C589.679877,105.642876 586.522962,107.41388 582.859177,108.648048 C579.200901,109.876682 575.212058,110.513137 570.898158,110.551877 L556.231999,110.551877 Z M556.231999,98.9850079 L570.898158,98.9850079 C573.316807,98.9850079 575.465493,98.614204 577.371763,97.8781305 C579.272524,97.1420569 580.892303,96.1181953 582.242118,94.8065455 C583.586424,93.4893613 584.611182,91.9231297 585.321901,90.0912475 C586.03813,88.2648997 586.396244,86.2780546 586.396244,84.1307123 C586.396244,81.8616135 586.03813,79.7751495 585.321901,77.8657859 C584.611182,75.9564222 583.586424,74.3127092 582.242118,72.9401811 C580.892303,71.5731875 579.272524,70.5105851 577.371763,69.752374 C575.465493,68.9996974 573.316807,68.6012215 570.898158,68.5569464 L556.231999,68.5569464 L556.231999,98.9850079 Z M634.862887,110.551877 L634.862887,142.175367 C634.862887,143.088541 634.124621,143.835683 633.210052,143.835683 L622.262772,143.835683 C621.348203,143.835683 620.615446,143.088541 620.615446,142.175367 L620.615446,58.650393 C620.615446,57.7316847 621.348203,56.9900768 622.262772,56.9900768 L649.529047,56.9900768 C653.842947,57.0288176 657.83179,57.6763409 661.495575,58.9271124 C665.15936,60.1834183 668.310766,61.9710254 670.966322,64.2954681 C673.616368,66.6254452 675.687921,69.4479827 677.169964,72.7630807 C678.657516,76.0892475 679.401292,79.8360278 679.401292,84.0089558 C679.401292,88.0656617 678.657516,91.7238917 677.169964,94.9836459 C675.687921,98.2489344 673.616368,101.032731 670.966322,103.335036 C668.310766,105.642876 665.15936,107.41388 661.495575,108.648048 C657.83179,109.876682 653.842947,110.513137 649.529047,110.551877 L634.862887,110.551877 Z M634.862887,98.9850079 L649.529047,98.9850079 C651.942186,98.9850079 654.101891,98.614204 655.997143,97.8781305 C657.903413,97.1420569 659.523191,96.1181953 660.867498,94.8065455 C662.211804,93.4893613 663.24758,91.9231297 663.9583,90.0912475 C664.674528,88.2648997 665.027133,86.2780546 665.027133,84.1307123 C665.027133,81.8616135 664.674528,79.7751495 663.9583,77.8657859 C663.24758,75.9564222 662.211804,74.3127092 660.867498,72.9401811 C659.523191,71.5731875 657.903413,70.5105851 655.997143,69.752374 C654.101891,68.9996974 651.942186,68.6012215 649.529047,68.5569464 L634.862887,68.5569464 L634.862887,98.9850079 Z" id="Fill-15" fill="#2E2E33"></path>
        </g>
    </g>
</svg>